<svg xmlns="http://www.w3.org/2000/svg" xmlns:xlink="http://www.w3.org/1999/xlink" viewBox="0 0 1940.87 438.26"><defs><style>.cls-1{fill:url(#linear-gradient);}.cls-2{fill:url(#linear-gradient-2);}.cls-3{fill:url(#linear-gradient-3);}.cls-4{fill:#fff;}</style><linearGradient id="linear-gradient" x1="51.11" y1="218.96" x2="1096.96" y2="218.96" gradientUnits="userSpaceOnUse"><stop offset="0" stop-color="#ffcb1e"/><stop offset="0" stop-color="#ffca1e"/><stop offset="0.15" stop-color="#fc9d20"/><stop offset="0.27" stop-color="#fb7d22"/><stop offset="0.38" stop-color="#f96923"/><stop offset="0.45" stop-color="#f96223"/><stop offset="0.58" stop-color="#f45b28"/><stop offset="0.77" stop-color="#e74937"/><stop offset="0.98" stop-color="#d02b4f"/><stop offset="0.99" stop-color="#cf2951"/></linearGradient><linearGradient id="linear-gradient-2" x1="51.11" y1="218.95" x2="1096.96" y2="218.95" xlink:href="#linear-gradient"/><linearGradient id="linear-gradient-3" x1="51.11" y1="219.13" x2="1096.96" y2="219.13" xlink:href="#linear-gradient"/></defs><g id="Layer_2" data-name="Layer 2"><path class="cls-1" d="M281.27,206.15h0a24.13,24.13,0,0,1,21.53,35l-33.06,65.28a73.45,73.45,0,0,1-65.86,40.49h-.14a73.49,73.49,0,0,1-65.86-40.74L47.46,125.92a24.12,24.12,0,1,1,43.12-21.63L181,284.57a25.14,25.14,0,0,0,22.82,14.12h.06a25.13,25.13,0,0,0,22.82-14l33.05-65.28A24.12,24.12,0,0,1,281.27,206.15Z"/><path class="cls-2" d="M503.66,346.79A24.13,24.13,0,0,1,482,333.38L393,153.58a25.12,25.12,0,0,0-22.81-14.22h-.12a25.09,25.09,0,0,0-22.82,14l-2.81,5.55a24.14,24.14,0,0,1-21.52,13.23h0a24.13,24.13,0,0,1-21.53-35l2.81-5.55a73.43,73.43,0,0,1,65.87-40.49h.33a73.43,73.43,0,0,1,65.83,41.06L525.27,312A24.12,24.12,0,0,1,503.66,346.79Z"/><path class="cls-3" d="M1081.86,91a24.13,24.13,0,0,1,21.54,35l-91.21,180.73a73.43,73.43,0,0,1-65.9,40.57H946a73.47,73.47,0,0,1-65.89-41.06l-75.54-152.5a25.12,25.12,0,0,0-22.82-14.22h-.11a25.11,25.11,0,0,0-22.83,14.05L681.53,306.71a73.43,73.43,0,0,1-65.9,40.57h-.28a73.46,73.46,0,0,1-65.89-41.06L460.1,125.82A24.12,24.12,0,0,1,481.71,91h0a24.13,24.13,0,0,1,21.62,13.42L592.7,284.8A25.11,25.11,0,0,0,615.52,299h.11A25.12,25.12,0,0,0,638.46,285l77.29-153.15a73.43,73.43,0,0,1,65.9-40.57h.28a73.43,73.43,0,0,1,65.89,41.06L923.36,284.8A25.13,25.13,0,0,0,946.19,299h.1A25.11,25.11,0,0,0,969.12,285l91.2-180.73A24.12,24.12,0,0,1,1081.86,91Z"/><path class="cls-4" d="M1153.21,346.29q-14.51,0-25.29-5.6A40.51,40.51,0,0,1,1111.23,325q-5.89-10.05-5.9-23.53v-28.6q0-13.47,5.9-23.53a40.57,40.57,0,0,1,16.69-15.65q10.78-5.59,25.29-5.6,14.3,0,25,5.6a40.77,40.77,0,0,1,16.58,15.65q5.91,10.06,5.91,23.53v20.52h-70.27v8.08q0,12,5.8,18.14t17.21,6.12q8.7,0,14.09-3a13.5,13.5,0,0,0,6.84-8.81h25.5a36.25,36.25,0,0,1-15.65,23.53Q1171.45,346.29,1153.21,346.29Zm22.39-67.37V272.7q0-11.81-5.6-18.13t-16.79-6.33q-11.19,0-17,6.43t-5.8,18.24v4.35l47-.41Z"/><path class="cls-4" d="M1264.28,346.08q-13.07,0-22.8-4.14a36.15,36.15,0,0,1-15.24-11.51,30.26,30.26,0,0,1-5.9-17.31h25.91a11.19,11.19,0,0,0,5.28,8.71q4.88,3.32,12.75,3.32h9.12q9.54,0,14.3-3.74a12.19,12.19,0,0,0,4.77-10.15,11.43,11.43,0,0,0-4.25-9.43q-4.24-3.42-13.16-4.46L1261,295.3q-19.49-2.7-28.6-10.37t-9.12-23q0-16,10.78-24.77t31.71-8.81h7.88q19.07,0,30.47,8.5a29.27,29.27,0,0,1,12.23,22.8H1290.4a10.45,10.45,0,0,0-5.08-7.46q-4.46-2.9-11.71-2.9h-7.88q-8.91,0-13,3.21t-4,9.43q0,5.81,3.53,8.6t11.4,4.05l14.72,2.07q20.31,2.91,29.95,10.88t9.64,23.53q0,16.59-11.3,25.81t-33.27,9.22Z"/><path class="cls-4" d="M1395,344.21q-16.37,0-25.6-9.12T1360.17,310V251.42h-30.89V228h30.89V203.6h26.12V228H1430v23.42h-43.73V310q0,10.78,10.57,10.78H1428v23.42Z"/><path class="cls-4" d="M1501.6,346.29q-21.76,0-34.21-12.13T1455,301.1V227.64h25.91v73.25q0,11,5.39,16.9t15.34,5.9q9.74,0,15.23-5.9t5.49-16.9V227.64h25.91V301.1q0,20.94-12.64,33.06T1501.6,346.29Z"/><path class="cls-4" d="M1611.09,346.29q-17,0-27.46-11.82t-10.47-31.71V271.87q0-20.1,10.37-31.92t27.56-11.82q14.1,0,22.39,8t8.29,21.86l-5.8-6h6l-.83-27.15V192.9h25.91V344.21h-25.29V322.45H1636l5.8-6q0,13.89-8.29,21.87T1611.09,346.29Zm9.12-22.39q10,0,15.45-5.91t5.49-16.48v-28.6q0-10.57-5.49-16.48t-15.45-5.91q-9.95,0-15.54,5.81t-5.6,16.58v28.6q0,10.78,5.6,16.59T1620.21,323.9Z"/><path class="cls-4" d="M1736.75,221.86q-7.87,0-12.44-4a15.26,15.26,0,0,1,0-21.76q4.56-4,12.44-4.05t12.44,4.05a15.26,15.26,0,0,1,0,21.76Q1744.63,221.87,1736.75,221.86Z"/><path class="cls-4" d="M1786.36,320.4v23.8h-99.75V320.4h39.64V262.12q0-10.76-10.58-10.75h-28.82V227.93h30.67q16.37,0,25.62,9.12t9.21,25.07V320.4Z"/><path class="cls-4" d="M1848.32,346.08q-14.5,0-25.18-5.49A40,40,0,0,1,1806.56,325q-5.91-10.05-5.91-23.73V273.12q0-13.68,5.91-23.74a40,40,0,0,1,16.58-15.54q10.66-5.49,25.18-5.5,14.73,0,25.29,5.5a40.17,40.17,0,0,1,16.48,15.54q5.91,10.06,5.91,23.53v28.4q0,13.68-5.91,23.73a40.13,40.13,0,0,1-16.48,15.55Q1863.05,346.08,1848.32,346.08Zm0-22.59q10.37,0,16.07-5.7t5.7-16.48V273.12q0-11-5.7-16.59t-16.07-5.59q-10.15,0-16,5.59t-5.8,16.59v28.19q0,10.77,5.8,16.48T1848.32,323.49Z"/></g></svg>