<svg xmlns="http://www.w3.org/2000/svg" xmlns:xlink="http://www.w3.org/1999/xlink" viewBox="0 0 1940.87 438.26"><defs><style>.cls-1{fill:url(#linear-gradient);}.cls-2{fill:url(#linear-gradient-2);}.cls-3{fill:url(#linear-gradient-3);}</style><linearGradient id="linear-gradient" x1="53.75" y1="217.82" x2="1131.79" y2="217.82" gradientUnits="userSpaceOnUse"><stop offset="0" stop-color="#ffcb1e"/><stop offset="0" stop-color="#ffca1e"/><stop offset="0.15" stop-color="#fc9d20"/><stop offset="0.27" stop-color="#fb7d22"/><stop offset="0.38" stop-color="#f96923"/><stop offset="0.45" stop-color="#f96223"/><stop offset="0.58" stop-color="#f45b28"/><stop offset="0.77" stop-color="#e74937"/><stop offset="0.98" stop-color="#d02b4f"/><stop offset="0.99" stop-color="#cf2951"/></linearGradient><linearGradient id="linear-gradient-2" x1="53.75" y1="217.81" x2="1131.79" y2="217.81" xlink:href="#linear-gradient"/><linearGradient id="linear-gradient-3" x1="53.75" y1="217.99" x2="1131.79" y2="217.99" xlink:href="#linear-gradient"/></defs><g id="Layer_2" data-name="Layer 2"><path class="cls-1" d="M291,204.61h0a24.86,24.86,0,0,1,22.18,36.09L279.11,308a75.71,75.71,0,0,1-67.89,41.73h-.15a75.72,75.72,0,0,1-67.88-42L50,121.91A24.87,24.87,0,1,1,94.44,99.62l93.2,185.83A25.91,25.91,0,0,0,211.16,300h.06a25.89,25.89,0,0,0,23.52-14.46l34.07-67.3A24.87,24.87,0,0,1,291,204.61Z"/><path class="cls-2" d="M520.23,349.58A24.87,24.87,0,0,1,498,335.76L406.14,150.43a25.88,25.88,0,0,0-23.51-14.67h-.13A25.89,25.89,0,0,0,359,150.23L356.09,156a24.87,24.87,0,0,1-22.19,13.63h0a24.86,24.86,0,0,1-22.18-36.1l2.89-5.72A75.69,75.69,0,0,1,382.5,86h.34a75.7,75.7,0,0,1,67.86,42.32l91.81,185.33A24.86,24.86,0,0,1,520.23,349.58Z"/><path class="cls-3" d="M1116.23,85.9a24.86,24.86,0,0,1,22.2,36.07l-94,186.29a75.68,75.68,0,0,1-67.93,41.82h-.29a75.71,75.71,0,0,1-67.92-42.32L830.42,150.57a25.91,25.91,0,0,0-23.53-14.67h-.11a25.89,25.89,0,0,0-23.53,14.49L703.58,308.26a75.68,75.68,0,0,1-67.93,41.82h-.29a75.71,75.71,0,0,1-67.92-42.32l-92.11-186a24.86,24.86,0,0,1,22.28-35.9h0a24.86,24.86,0,0,1,22.28,13.83l92.12,186a25.87,25.87,0,0,0,23.53,14.67h.11a25.89,25.89,0,0,0,23.53-14.49L738.85,128a75.7,75.7,0,0,1,67.93-41.82h.29A75.72,75.72,0,0,1,875,128.49l77.86,157.19a25.89,25.89,0,0,0,23.53,14.67h.11A25.88,25.88,0,0,0,1000,285.86l94-186.3a24.86,24.86,0,0,1,22.2-13.66Z"/><path d="M1195,243.81c-34.68,0-58.9,22.28-58.9,54.19,0,32.77,23.12,53.94,58.9,53.94,26.62,0,45.48-12,53.1-33.76a2.61,2.61,0,0,0,0-2.28,2.86,2.86,0,0,0-2.39-.88h-26.17c-1.47,0-2.49.48-3.64,3-3.36,7.55-11.43,12.07-21.59,12.07-13.83,0-23.07-9.73-24.1-25.4l-.11-1.81h77.74c2.11,0,3-.9,3-3v-4.24C1250.85,259.84,1222.81,243.81,1195,243.81Zm-24.67,43.39.36-2c2.4-13.56,10.4-20.73,23.13-20.73,12.92,0,22.13,8.41,22.92,20.92l.11,1.81Z"/><path d="M1323.85,283.71c-13.58-2.27-25.32-4.24-25.32-12.83,0-3.94,3.54-8.54,13.49-8.54,10.14,0,16.14,3.22,19.47,10.42,1.2,2.66,2.57,3,3.88,3h25.23a2.22,2.22,0,0,0,2.58-3.13c-4.82-18.84-21.86-28.84-49.27-28.84-29.79,0-47.58,11.88-47.58,31.79,0,23.54,23,27,43.2,30.1,14.14,2.15,26.36,4,26.36,13.28,0,7.42-6.72,11.84-18,11.84-9.25,0-21-3.85-23.81-14.72-.67-2.67-1.76-3.2-3.31-3.2h-25.7a3.07,3.07,0,0,0-2.37.84,2.67,2.67,0,0,0-.43,2.14c5.11,29.81,32.68,36.06,54.91,36.06,32.34,0,50.88-13.21,50.88-36.26C1368.09,291.12,1343.56,287,1323.85,283.71Z"/><path d="M1447.12,247.59h-17V203.21c-20.93,5.06-32,19.78-32,42.68v1.7h-16.79c-2.12,0-3,.9-3,3v17.92c0,2.12.9,3,3,3h16.79v73.61c0,2.12.9,3,3,3h25.94c2.12,0,3-.9,3-3V271.54h17c2.12,0,3-.9,3-3V250.6C1450.14,248.49,1449.24,247.59,1447.12,247.59Z"/><path d="M1567.21,350.31V250.6c0-2.11-.9-3-3-3h-25.93c-2.12,0-3,.9-3,3v49.52c0,15.6-9.34,26.93-22.21,26.93-10.51,0-16.79-7.78-16.79-20.8V250.6c0-2.11-.9-3-3-3h-25.94c-2.11,0-3,.9-3,3v55.65c0,29.89,13.43,45.69,38.86,45.69,16,0,27.37-6.57,34.7-20.09l1.54-2.86,1.47,2.9C1546.21,342.54,1554.85,348.58,1567.21,350.31Z"/><path d="M1671.2,175.57v84.66l-2.88-2.81c-8.87-8.63-20.77-13.19-34.42-13.19-29.54,0-50.18,22.19-50.18,54s20.64,54.18,50.18,54.18c16.27,0,30.23-6.67,39.31-18.77l1.68-2.24,1.21,2.52c5.22,10.86,14.32,16.58,27.07,17.05V218.24C1703.17,195.35,1692.13,180.63,1671.2,175.57Zm-26.45,151.89c-15.34,0-26.46-12.21-26.46-29s11.12-29.05,26.46-29.05,26.45,12.22,26.45,29.05S1660.08,327.46,1644.75,327.46Z"/><path d="M1745.37,197.94c-12,0-24.23,6-24.23,17.4,0,11.95,12.56,17.39,24.23,17.39,12.05,0,24.24-6,24.24-17.39S1757.42,197.94,1745.37,197.94Z"/><path d="M1728.53,246.07v99.5c0,2.12.91,3,3,3h25.94c2.11,0,3-.9,3-3V288.75C1760.51,265.85,1749.46,251.13,1728.53,246.07Z"/><path d="M1893.55,298.41c0-32.91-22.56-54.18-57.48-54.18s-57.72,21.27-57.72,54.18,22.66,53.95,57.72,53.95S1893.55,331.19,1893.55,298.41Zm-83.47.24c0-18.08,10.45-30.23,26-30.23s25.75,12.15,25.75,30.23-10.11,29.52-25.75,29.52S1810.08,316.31,1810.08,298.65Z"/></g></svg>